<svg width="2522" height="1191" viewBox="0 0 2522 1191" fill="none" xmlns="http://www.w3.org/2000/svg">
<path d="M701.637 959.179C705.981 950.864 713.075 944.312 721.708 940.64C730.342 936.969 739.981 936.404 748.984 939.043C757.987 941.681 765.797 947.36 771.082 955.111C776.368 962.863 778.802 972.207 777.971 981.552C777.139 990.897 773.093 999.664 766.522 1006.36C759.951 1013.06 751.261 1017.27 741.933 1018.27C732.606 1019.28 723.217 1017.02 715.368 1011.89C707.519 1006.75 701.694 999.045 698.886 990.094L707.704 987.328C709.872 994.239 714.37 1000.19 720.43 1004.15C726.49 1008.12 733.739 1009.86 740.941 1009.09C748.143 1008.31 754.852 1005.06 759.925 999.887C764.999 994.717 768.123 987.948 768.765 980.732C769.407 973.517 767.527 966.303 763.446 960.318C759.366 954.334 753.336 949.949 746.385 947.912C739.433 945.874 731.991 946.31 725.325 949.145C718.659 951.98 713.183 957.039 709.828 963.459L701.637 959.179Z" fill="#D9D9D9"/>
<path d="M701.637 959.179C705.981 950.864 713.075 944.312 721.708 940.64C730.342 936.969 739.981 936.404 748.984 939.043C757.987 941.681 765.797 947.36 771.082 955.111C776.368 962.863 778.802 972.207 777.971 981.552C777.139 990.897 773.093 999.664 766.522 1006.36C759.951 1013.06 751.261 1017.27 741.933 1018.27C732.606 1019.28 723.217 1017.02 715.368 1011.89C707.519 1006.75 701.694 999.045 698.886 990.094L707.704 987.328C709.872 994.239 714.37 1000.19 720.43 1004.15C726.49 1008.12 733.739 1009.86 740.941 1009.09C748.143 1008.31 754.852 1005.06 759.925 999.887C764.999 994.717 768.123 987.948 768.765 980.732C769.407 973.517 767.527 966.303 763.446 960.318C759.366 954.334 753.336 949.949 746.385 947.912C739.433 945.874 731.991 946.31 725.325 949.145C718.659 951.98 713.183 957.039 709.828 963.459L701.637 959.179Z" fill="#D9D9D9"/>
<path d="M0 265.165H123.092L122.965 582.191L193.674 513.514V214.912H229.21V534.505L122.965 636.978V1067.16H666.782V1190.64L931.589 978.202L666.782 765.348V888.766H519.054L456.07 958.921H708.306V993.896L183.84 994.715V658.284L299.64 534.628V265.134L422.863 265.641L213.386 0L0 265.165Z" fill="url(#paint0_linear_69_168)"/>
<path d="M300.217 574.06L225.233 662.343V958.758H421.258L482.267 888.822H378.444L332.686 930.787H300.217V574.06Z" fill="url(#paint1_linear_69_168)"/>
<path d="M0 265.165H123.092L122.965 582.191L193.674 513.514V214.912H229.21V534.505L122.965 636.978V1067.16H666.782V1190.64L931.589 978.202L666.782 765.348V888.766H519.054L456.07 958.921H708.306V993.896L183.84 994.715V658.284L299.64 534.628V265.134L422.863 265.641L213.386 0L0 265.165Z" fill="url(#paint2_linear_69_168)"/>
<path d="M300.217 574.06L225.233 662.343V958.758H421.258L482.267 888.822H378.444L332.686 930.787H300.217V574.06Z" fill="url(#paint3_linear_69_168)"/>
<path d="M250.54 180.779C250.54 203.175 232.384 221.331 209.988 221.331C187.592 221.331 169.437 203.175 169.437 180.779C169.437 158.383 187.592 140.228 209.988 140.228C232.384 140.228 250.54 158.383 250.54 180.779ZM182.217 180.779C182.217 196.117 194.651 208.551 209.988 208.551C225.326 208.551 237.76 196.117 237.76 180.779C237.76 165.441 225.326 153.008 209.988 153.008C194.651 153.008 182.217 165.441 182.217 180.779Z" fill="url(#paint4_linear_69_168)"/>
<path d="M250.54 180.779C250.54 203.175 232.384 221.331 209.988 221.331C187.592 221.331 169.437 203.175 169.437 180.779C169.437 158.383 187.592 140.228 209.988 140.228C232.384 140.228 250.54 158.383 250.54 180.779ZM182.217 180.779C182.217 196.117 194.651 208.551 209.988 208.551C225.326 208.551 237.76 196.117 237.76 180.779C237.76 165.441 225.326 153.008 209.988 153.008C194.651 153.008 182.217 165.441 182.217 180.779Z" fill="url(#paint5_linear_69_168)"/>
<path d="M750.34 977.958C750.34 985.006 744.626 990.719 737.579 990.719C730.531 990.719 724.818 985.006 724.818 977.958C724.818 970.911 730.531 965.198 737.579 965.198C744.626 965.198 750.34 970.911 750.34 977.958Z" fill="#0690D6"/>
<path d="M750.34 977.958C750.34 985.006 744.626 990.719 737.579 990.719C730.531 990.719 724.818 985.006 724.818 977.958C724.818 970.911 730.531 965.198 737.579 965.198C744.626 965.198 750.34 970.911 750.34 977.958Z" fill="#0690D6"/>
<path d="M222.749 180.78C222.749 187.828 217.036 193.541 209.988 193.541C202.941 193.541 197.228 187.828 197.228 180.78C197.228 173.733 202.941 168.02 209.988 168.02C217.036 168.02 222.749 173.733 222.749 180.78Z" fill="#0690D6"/>
<path d="M222.749 180.78C222.749 187.828 217.036 193.541 209.988 193.541C202.941 193.541 197.228 187.828 197.228 180.78C197.228 173.733 202.941 168.02 209.988 168.02C217.036 168.02 222.749 173.733 222.749 180.78Z" fill="#0690D6"/>
<path d="M122.976 582.171V636.999L229.205 534.537V215.048H193.631V513.473L122.976 582.171Z" fill="url(#paint6_linear_69_168)"/>
<path d="M122.976 582.171V636.999L229.205 534.537V215.048H193.631V513.473L122.976 582.171Z" fill="url(#paint7_linear_69_168)"/>
<path d="M225.533 661.923L226.939 958.699H421.251L482.267 888.822L519.094 888.721L456.332 958.699H708.558V993.927L183.8 994.738V658.422L299.463 534.639L300.085 574.435L225.533 661.923Z" fill="url(#paint8_linear_69_168)"/>
<path d="M225.533 661.923L226.939 958.699H421.251L482.267 888.822L519.094 888.721L456.332 958.699H708.558V993.927L183.8 994.738V658.422L299.463 534.639L300.085 574.435L225.533 661.923Z" fill="url(#paint9_linear_69_168)"/>
<path d="M778.13 977.957C778.13 1000.35 759.975 1018.51 737.579 1018.51C715.183 1018.51 697.027 1000.35 697.027 977.957C697.027 955.561 715.183 937.406 737.579 937.406C759.975 937.406 778.13 955.561 778.13 977.957ZM709.807 977.957C709.807 993.295 722.241 1005.73 737.579 1005.73C752.916 1005.73 765.35 993.295 765.35 977.957C765.35 962.619 752.916 950.186 737.579 950.186C722.241 950.186 709.807 962.619 709.807 977.957Z" fill="url(#paint10_linear_69_168)"/>
<path d="M778.13 977.957C778.13 1000.35 759.975 1018.51 737.579 1018.51C715.183 1018.51 697.027 1000.35 697.027 977.957C697.027 955.561 715.183 937.406 737.579 937.406C759.975 937.406 778.13 955.561 778.13 977.957ZM709.807 977.957C709.807 993.295 722.241 1005.73 737.579 1005.73C752.916 1005.73 765.35 993.295 765.35 977.957C765.35 962.619 752.916 950.186 737.579 950.186C722.241 950.186 709.807 962.619 709.807 977.957Z" fill="url(#paint11_linear_69_168)"/>
<path d="M656.422 878.421L528.854 878.42L656.422 765.387L656.422 878.421Z" fill="url(#paint12_linear_69_168)"/>
<path d="M656.422 878.421L528.854 878.42L656.422 765.387L656.422 878.421Z" fill="url(#paint13_linear_69_168)"/>
<path d="M522.929 785.142C482.01 785.142 449.246 774.126 424.637 752.093C400.029 730.059 387.724 702.017 387.724 667.965C387.724 631.339 402.318 601.866 431.505 579.546C460.692 557.227 501.468 546.067 553.832 546.067C571.573 546.067 589.601 547.498 607.914 550.359C626.514 552.935 645.256 556.655 664.142 561.519V497.994C664.142 472.241 655.414 452.497 637.959 438.762C620.791 424.741 594.322 417.73 558.554 417.73C499.894 417.73 464.984 441.481 453.824 488.981L414.336 484.259L419.916 408.717C438.229 400.419 459.69 393.694 484.299 388.543C508.907 383.107 536.377 380.388 566.709 380.388C627.372 380.388 670.723 391.405 696.763 413.438C723.088 435.471 736.251 470.095 736.251 517.309V679.984C736.251 699.728 737.252 713.606 739.255 721.618C741.258 729.63 745.121 734.351 750.844 735.782C756.567 737.213 765.152 737.928 776.597 737.928H795.912V776.129C791.334 775.843 786.756 775.7 782.177 775.7C777.599 775.7 773.021 775.843 768.442 776.129C763.864 776.129 759.286 776.129 754.707 776.129C739.255 776.415 724.09 776.701 709.21 776.987C694.33 777.273 680.166 777.56 666.717 777.846V719.043C649.548 740.79 629.089 757.243 605.339 768.403C581.875 779.563 554.405 785.142 522.929 785.142ZM544.819 743.937C563.418 743.937 581.875 740.074 600.188 732.348C618.502 724.336 633.667 712.604 645.685 697.152C657.99 681.7 664.142 662.386 664.142 639.208V597.144C646.973 592.28 630.663 588.56 615.211 585.985C599.759 583.409 584.736 582.122 570.143 582.122C535.805 582.122 508.621 589.561 488.591 604.441C468.847 619.034 458.975 639.494 458.975 665.819C458.975 689.283 466.987 708.169 483.011 722.476C499.035 736.784 519.638 743.937 544.819 743.937Z" fill="url(#paint14_linear_69_168)"/>
<path d="M842.697 776.129V737.07H862.871C873.744 737.07 882.329 734.924 888.624 730.632C894.919 726.053 903.503 717.183 914.377 704.02L1016.96 580.834L915.235 464.515C905.506 453.069 897.924 445.057 892.487 440.479C887.336 435.901 881.613 433.182 875.318 432.324C869.309 431.465 860.152 431.036 847.848 431.036V391.977C849.279 391.977 855.431 392.12 866.304 392.406C877.178 392.406 889.053 392.55 901.93 392.836C915.092 392.836 925.537 392.836 933.263 392.836C947.57 392.836 960.733 392.836 972.751 392.836C985.055 392.55 999.935 392.263 1017.39 391.977V423.739C1001.65 424.026 990.492 424.884 983.911 426.315C977.615 427.459 974.468 429.892 974.468 433.612C974.468 437.331 976.471 441.481 980.477 446.059C984.483 450.637 989.347 456.217 995.07 462.798L1066.75 544.779L1122.98 477.821C1131.56 467.52 1138.57 458.935 1144.01 452.068C1149.45 444.914 1152.16 439.191 1152.16 434.899C1152.16 430.607 1149.3 427.746 1143.58 426.315C1137.86 424.598 1128.13 423.739 1114.39 423.739V391.977C1123.84 391.977 1132.71 392.12 1141 392.406C1149.59 392.406 1157.74 392.55 1165.47 392.836C1173.2 392.836 1180.64 392.836 1187.79 392.836C1201.24 392.836 1214.4 392.836 1227.28 392.836C1240.44 392.55 1255.75 392.263 1273.2 391.977V431.036H1261.62C1248.74 431.036 1239.15 431.895 1232.86 433.612C1226.85 435.328 1220.27 440.193 1213.11 448.205C1206.25 455.931 1194.94 469.094 1179.21 487.693L1104.09 576.542L1216.98 703.591C1226.99 714.75 1234.57 722.762 1239.73 727.627C1244.88 732.205 1250.46 734.924 1256.47 735.782C1262.76 736.641 1272.35 737.07 1285.22 737.07V776.129C1279.21 776.129 1273.2 776.129 1267.2 776.129C1261.47 775.843 1255.32 775.7 1248.74 775.7C1242.44 775.7 1235.58 775.7 1228.14 775.7C1220.7 775.413 1212.68 775.27 1204.1 775.27C1202.38 775.27 1196.23 775.413 1185.64 775.7C1175.34 775.7 1164.18 775.843 1152.16 776.129C1140.15 776.129 1130.85 776.129 1124.27 776.129V744.367C1140.86 744.367 1151.88 741.648 1157.32 736.211C1156.17 733.922 1154.74 731.49 1153.02 728.915C1151.59 726.339 1149.73 723.764 1147.44 721.189L1059.88 614.742L983.481 704.449C977.472 711.603 972.894 717.183 969.746 721.189C966.885 724.909 965.454 728.342 965.454 731.49C965.454 736.068 968.745 739.216 975.326 740.933C981.908 742.65 992.781 743.794 1007.95 744.367V776.129C1006.52 775.843 1000.65 775.7 990.349 775.7C980.334 775.7 969.031 775.7 956.44 775.7C943.85 775.413 932.976 775.27 923.82 775.27C906.651 775.27 892.201 775.413 880.469 775.7C868.737 775.986 856.146 776.129 842.697 776.129Z" fill="url(#paint15_linear_69_168)"/>
<path d="M1334.58 776.129V737.07C1355.47 737.07 1370.21 736.354 1378.79 734.924C1387.66 733.207 1393.1 730.345 1395.1 726.339C1397.11 722.333 1398.11 716.61 1398.11 709.171V446.059C1398.11 438.047 1393.53 433.468 1384.37 432.324C1375.22 431.179 1359.33 430.464 1336.73 430.178C1336.73 423.596 1336.73 417.158 1336.73 410.863C1336.73 404.568 1336.73 398.272 1336.73 391.977C1348.46 391.977 1359.91 391.977 1371.07 391.977C1382.23 391.977 1393.1 391.834 1403.69 391.548C1415.13 391.262 1426.29 390.976 1437.17 390.69C1448.04 390.403 1459.06 390.117 1470.22 389.831V710.887C1470.22 723.764 1475.08 731.347 1484.81 733.636C1494.83 735.925 1511.42 737.07 1534.6 737.07V776.129C1527.16 776.129 1517.14 776.129 1504.55 776.129C1492.25 775.843 1479.52 775.7 1466.35 775.7C1453.48 775.7 1442.32 775.7 1432.87 775.7C1423.43 775.413 1417.85 775.27 1416.13 775.27C1400.11 775.27 1385.8 775.413 1373.21 775.7C1360.62 775.986 1347.75 776.129 1334.58 776.129ZM1430.73 307.421C1418.14 307.421 1407.98 303.701 1400.25 296.261C1392.81 288.821 1389.09 279.092 1389.09 267.074C1389.09 255.056 1392.81 245.47 1400.25 238.317C1407.98 231.163 1417.99 227.586 1430.3 227.586C1442.89 227.586 1452.9 231.163 1460.34 238.317C1467.78 245.47 1471.5 255.199 1471.5 267.503C1471.5 279.235 1467.78 288.821 1460.34 296.261C1452.9 303.701 1443.03 307.421 1430.73 307.421Z" fill="url(#paint16_linear_69_168)"/>
<path d="M1789.56 788.147C1749.21 788.147 1713.73 779.706 1683.11 762.823C1652.49 745.94 1628.46 722.333 1611 692.002C1593.83 661.384 1585.25 625.473 1585.25 584.268C1585.25 543.063 1593.83 507.151 1611 476.534C1628.46 445.916 1652.49 422.309 1683.11 405.712C1714.01 388.83 1749.5 380.388 1789.56 380.388C1829.9 380.388 1865.38 388.83 1896 405.712C1926.91 422.309 1951.09 445.916 1968.54 476.534C1986 506.865 1994.72 542.776 1994.72 584.268C1994.72 625.187 1986 660.955 1968.54 691.573C1951.37 722.19 1927.34 745.94 1896.43 762.823C1865.81 779.706 1830.19 788.147 1789.56 788.147ZM1789.56 743.508C1829.04 743.508 1860.66 729.058 1884.41 700.157C1908.16 671.256 1920.04 632.483 1920.04 583.838C1920.04 534.907 1908.16 496.135 1884.41 467.52C1860.95 438.905 1829.33 424.598 1789.56 424.598C1749.78 424.598 1718.16 438.905 1694.7 467.52C1671.23 495.848 1659.5 534.621 1659.5 583.838C1659.5 632.483 1671.23 671.256 1694.7 700.157C1718.16 729.058 1749.78 743.508 1789.56 743.508Z" fill="url(#paint17_linear_69_168)"/>
<path d="M2048.38 776.129C2048.38 773.84 2048.38 770.978 2048.38 767.544C2048.38 764.111 2048.38 760.534 2048.38 756.814C2048.38 752.808 2048.38 749.088 2048.38 745.654C2048.38 742.22 2048.38 739.359 2048.38 737.07C2069.84 737.07 2085.15 736.498 2094.3 735.353C2103.46 734.208 2109.04 732.062 2111.04 728.915C2113.33 725.481 2114.48 720.759 2114.48 714.75V444.342C2114.48 437.188 2110.18 433.039 2101.6 431.895C2093.3 430.75 2076.42 430.178 2050.95 430.178C2050.95 427.03 2050.95 423.024 2050.95 418.16C2050.95 413.295 2050.81 408.431 2050.52 403.566C2050.52 398.702 2050.52 394.839 2050.52 391.977C2060.25 391.977 2069.55 391.977 2078.42 391.977C2087.58 391.977 2096.45 391.834 2105.03 391.548C2119.05 391.548 2132.5 391.405 2145.38 391.119C2158.54 390.546 2171.42 390.117 2184.01 389.831V450.351C2203.47 429.176 2225.93 412.866 2251.4 401.42C2276.86 389.688 2303.76 383.822 2332.09 383.822C2373.87 383.822 2405.92 395.125 2428.23 417.73C2450.55 440.05 2461.71 475.103 2461.71 522.889V719.472C2461.71 728.342 2466.15 733.35 2475.02 734.495C2483.89 735.639 2499.49 736.498 2521.8 737.07V776.129C2507.78 776.129 2493.91 776.129 2480.17 776.129C2466.72 775.843 2449.98 775.557 2429.95 775.27C2409.06 775.27 2390.32 775.413 2373.72 775.7C2357.13 775.986 2340.53 776.129 2323.93 776.129V737.07C2345.68 737.07 2360.99 736.498 2369.86 735.353C2379.02 734.208 2384.45 732.205 2386.17 729.344C2388.17 726.482 2389.18 722.476 2389.18 717.326V547.784C2389.18 509.154 2384.17 480.396 2374.15 461.511C2364.14 442.625 2342.96 433.182 2310.63 433.182C2279.44 433.182 2253.83 440.336 2233.8 454.643C2213.77 468.951 2198.32 482.972 2187.44 496.707C2187.16 507.294 2186.87 518.025 2186.58 528.898C2186.3 539.486 2186.15 550.502 2186.15 561.948V716.896C2186.15 726.912 2191.16 732.778 2201.18 734.495C2211.48 736.211 2228.22 737.07 2251.4 737.07V776.129C2236.52 776.129 2221.78 776.129 2207.19 776.129C2192.88 775.843 2175.28 775.557 2154.39 775.27C2132.93 775.27 2113.9 775.413 2097.31 775.7C2080.71 775.986 2064.4 776.129 2048.38 776.129Z" fill="url(#paint18_linear_69_168)"/>
<path d="M522.929 785.142C482.01 785.142 449.246 774.126 424.637 752.093C400.029 730.059 387.724 702.017 387.724 667.965C387.724 631.339 402.318 601.866 431.505 579.546C460.692 557.227 501.468 546.067 553.832 546.067C571.573 546.067 589.601 547.498 607.914 550.359C626.514 552.935 645.256 556.655 664.142 561.519V497.994C664.142 472.241 655.414 452.497 637.959 438.762C620.791 424.741 594.322 417.73 558.554 417.73C499.894 417.73 464.984 441.481 453.824 488.981L414.336 484.259L419.916 408.717C438.229 400.419 459.69 393.694 484.299 388.543C508.907 383.107 536.377 380.388 566.709 380.388C627.372 380.388 670.723 391.405 696.763 413.438C723.088 435.471 736.251 470.095 736.251 517.309V679.984C736.251 699.728 737.252 713.606 739.255 721.618C741.258 729.63 745.121 734.351 750.844 735.782C756.567 737.213 765.152 737.928 776.597 737.928H795.912V776.129C791.334 775.843 786.756 775.7 782.177 775.7C777.599 775.7 773.021 775.843 768.442 776.129C763.864 776.129 759.286 776.129 754.707 776.129C739.255 776.415 724.09 776.701 709.21 776.987C694.33 777.273 680.166 777.56 666.717 777.846V719.043C649.548 740.79 629.089 757.243 605.339 768.403C581.875 779.563 554.405 785.142 522.929 785.142ZM544.819 743.937C563.418 743.937 581.875 740.074 600.188 732.348C618.502 724.336 633.667 712.604 645.685 697.152C657.99 681.7 664.142 662.386 664.142 639.208V597.144C646.973 592.28 630.663 588.56 615.211 585.985C599.759 583.409 584.736 582.122 570.143 582.122C535.805 582.122 508.621 589.561 488.591 604.441C468.847 619.034 458.975 639.494 458.975 665.819C458.975 689.283 466.987 708.169 483.011 722.476C499.035 736.784 519.638 743.937 544.819 743.937Z" fill="url(#paint19_linear_69_168)"/>
<path d="M842.697 776.129V737.07H862.871C873.744 737.07 882.329 734.924 888.624 730.632C894.919 726.053 903.503 717.183 914.377 704.02L1016.96 580.834L915.235 464.515C905.506 453.069 897.924 445.057 892.487 440.479C887.336 435.901 881.613 433.182 875.318 432.324C869.309 431.465 860.152 431.036 847.848 431.036V391.977C849.279 391.977 855.431 392.12 866.304 392.406C877.178 392.406 889.053 392.55 901.93 392.836C915.092 392.836 925.537 392.836 933.263 392.836C947.57 392.836 960.733 392.836 972.751 392.836C985.055 392.55 999.935 392.263 1017.39 391.977V423.739C1001.65 424.026 990.492 424.884 983.911 426.315C977.615 427.459 974.468 429.892 974.468 433.612C974.468 437.331 976.471 441.481 980.477 446.059C984.483 450.637 989.347 456.217 995.07 462.798L1066.75 544.779L1122.98 477.821C1131.56 467.52 1138.57 458.935 1144.01 452.068C1149.45 444.914 1152.16 439.191 1152.16 434.899C1152.16 430.607 1149.3 427.746 1143.58 426.315C1137.86 424.598 1128.13 423.739 1114.39 423.739V391.977C1123.84 391.977 1132.71 392.12 1141 392.406C1149.59 392.406 1157.74 392.55 1165.47 392.836C1173.2 392.836 1180.64 392.836 1187.79 392.836C1201.24 392.836 1214.4 392.836 1227.28 392.836C1240.44 392.55 1255.75 392.263 1273.2 391.977V431.036H1261.62C1248.74 431.036 1239.15 431.895 1232.86 433.612C1226.85 435.328 1220.27 440.193 1213.11 448.205C1206.25 455.931 1194.94 469.094 1179.21 487.693L1104.09 576.542L1216.98 703.591C1226.99 714.75 1234.57 722.762 1239.73 727.627C1244.88 732.205 1250.46 734.924 1256.47 735.782C1262.76 736.641 1272.35 737.07 1285.22 737.07V776.129C1279.21 776.129 1273.2 776.129 1267.2 776.129C1261.47 775.843 1255.32 775.7 1248.74 775.7C1242.44 775.7 1235.58 775.7 1228.14 775.7C1220.7 775.413 1212.68 775.27 1204.1 775.27C1202.38 775.27 1196.23 775.413 1185.64 775.7C1175.34 775.7 1164.18 775.843 1152.16 776.129C1140.15 776.129 1130.85 776.129 1124.27 776.129V744.367C1140.86 744.367 1151.88 741.648 1157.32 736.211C1156.17 733.922 1154.74 731.49 1153.02 728.915C1151.59 726.339 1149.73 723.764 1147.44 721.189L1059.88 614.742L983.481 704.449C977.472 711.603 972.894 717.183 969.746 721.189C966.885 724.909 965.454 728.342 965.454 731.49C965.454 736.068 968.745 739.216 975.326 740.933C981.908 742.65 992.781 743.794 1007.95 744.367V776.129C1006.52 775.843 1000.65 775.7 990.349 775.7C980.334 775.7 969.031 775.7 956.44 775.7C943.85 775.413 932.976 775.27 923.82 775.27C906.651 775.27 892.201 775.413 880.469 775.7C868.737 775.986 856.146 776.129 842.697 776.129Z" fill="url(#paint20_linear_69_168)"/>
<path d="M1334.58 776.129V737.07C1355.47 737.07 1370.21 736.354 1378.79 734.924C1387.66 733.207 1393.1 730.345 1395.1 726.339C1397.11 722.333 1398.11 716.61 1398.11 709.171V446.059C1398.11 438.047 1393.53 433.468 1384.37 432.324C1375.22 431.179 1359.33 430.464 1336.73 430.178C1336.73 423.596 1336.73 417.158 1336.73 410.863C1336.73 404.568 1336.73 398.272 1336.73 391.977C1348.46 391.977 1359.91 391.977 1371.07 391.977C1382.23 391.977 1393.1 391.834 1403.69 391.548C1415.13 391.262 1426.29 390.976 1437.17 390.69C1448.04 390.403 1459.06 390.117 1470.22 389.831V710.887C1470.22 723.764 1475.08 731.347 1484.81 733.636C1494.83 735.925 1511.42 737.07 1534.6 737.07V776.129C1527.16 776.129 1517.14 776.129 1504.55 776.129C1492.25 775.843 1479.52 775.7 1466.35 775.7C1453.48 775.7 1442.32 775.7 1432.87 775.7C1423.43 775.413 1417.85 775.27 1416.13 775.27C1400.11 775.27 1385.8 775.413 1373.21 775.7C1360.62 775.986 1347.75 776.129 1334.58 776.129ZM1430.73 307.421C1418.14 307.421 1407.98 303.701 1400.25 296.261C1392.81 288.821 1389.09 279.092 1389.09 267.074C1389.09 255.056 1392.81 245.47 1400.25 238.317C1407.98 231.163 1417.99 227.586 1430.3 227.586C1442.89 227.586 1452.9 231.163 1460.34 238.317C1467.78 245.47 1471.5 255.199 1471.5 267.503C1471.5 279.235 1467.78 288.821 1460.34 296.261C1452.9 303.701 1443.03 307.421 1430.73 307.421Z" fill="url(#paint21_linear_69_168)"/>
<path d="M1789.56 788.147C1749.21 788.147 1713.73 779.706 1683.11 762.823C1652.49 745.94 1628.46 722.333 1611 692.002C1593.83 661.384 1585.25 625.473 1585.25 584.268C1585.25 543.063 1593.83 507.151 1611 476.534C1628.46 445.916 1652.49 422.309 1683.11 405.712C1714.01 388.83 1749.5 380.388 1789.56 380.388C1829.9 380.388 1865.38 388.83 1896 405.712C1926.91 422.309 1951.09 445.916 1968.54 476.534C1986 506.865 1994.72 542.776 1994.72 584.268C1994.72 625.187 1986 660.955 1968.54 691.573C1951.37 722.19 1927.34 745.94 1896.43 762.823C1865.81 779.706 1830.19 788.147 1789.56 788.147ZM1789.56 743.508C1829.04 743.508 1860.66 729.058 1884.41 700.157C1908.16 671.256 1920.04 632.483 1920.04 583.838C1920.04 534.907 1908.16 496.135 1884.41 467.52C1860.95 438.905 1829.33 424.598 1789.56 424.598C1749.78 424.598 1718.16 438.905 1694.7 467.52C1671.23 495.848 1659.5 534.621 1659.5 583.838C1659.5 632.483 1671.23 671.256 1694.7 700.157C1718.16 729.058 1749.78 743.508 1789.56 743.508Z" fill="url(#paint22_linear_69_168)"/>
<path d="M2048.38 776.129C2048.38 773.84 2048.38 770.978 2048.38 767.544C2048.38 764.111 2048.38 760.534 2048.38 756.814C2048.38 752.808 2048.38 749.088 2048.38 745.654C2048.38 742.22 2048.38 739.359 2048.38 737.07C2069.84 737.07 2085.15 736.498 2094.3 735.353C2103.46 734.208 2109.04 732.062 2111.04 728.915C2113.33 725.481 2114.48 720.759 2114.48 714.75V444.342C2114.48 437.188 2110.18 433.039 2101.6 431.895C2093.3 430.75 2076.42 430.178 2050.95 430.178C2050.95 427.03 2050.95 423.024 2050.95 418.16C2050.95 413.295 2050.81 408.431 2050.52 403.566C2050.52 398.702 2050.52 394.839 2050.52 391.977C2060.25 391.977 2069.55 391.977 2078.42 391.977C2087.58 391.977 2096.45 391.834 2105.03 391.548C2119.05 391.548 2132.5 391.405 2145.38 391.119C2158.54 390.546 2171.42 390.117 2184.01 389.831V450.351C2203.47 429.176 2225.93 412.866 2251.4 401.42C2276.86 389.688 2303.76 383.822 2332.09 383.822C2373.87 383.822 2405.92 395.125 2428.23 417.73C2450.55 440.05 2461.71 475.103 2461.71 522.889V719.472C2461.71 728.342 2466.15 733.35 2475.02 734.495C2483.89 735.639 2499.49 736.498 2521.8 737.07V776.129C2507.78 776.129 2493.91 776.129 2480.17 776.129C2466.72 775.843 2449.98 775.557 2429.95 775.27C2409.06 775.27 2390.32 775.413 2373.72 775.7C2357.13 775.986 2340.53 776.129 2323.93 776.129V737.07C2345.68 737.07 2360.99 736.498 2369.86 735.353C2379.02 734.208 2384.45 732.205 2386.17 729.344C2388.17 726.482 2389.18 722.476 2389.18 717.326V547.784C2389.18 509.154 2384.17 480.396 2374.15 461.511C2364.14 442.625 2342.96 433.182 2310.63 433.182C2279.44 433.182 2253.83 440.336 2233.8 454.643C2213.77 468.951 2198.32 482.972 2187.44 496.707C2187.16 507.294 2186.87 518.025 2186.58 528.898C2186.3 539.486 2186.15 550.502 2186.15 561.948V716.896C2186.15 726.912 2191.16 732.778 2201.18 734.495C2211.48 736.211 2228.22 737.07 2251.4 737.07V776.129C2236.52 776.129 2221.78 776.129 2207.19 776.129C2192.88 775.843 2175.28 775.557 2154.39 775.27C2132.93 775.27 2113.9 775.413 2097.31 775.7C2080.71 775.986 2064.4 776.129 2048.38 776.129Z" fill="url(#paint23_linear_69_168)"/>
<defs>
<linearGradient id="paint0_linear_69_168" x1="137.366" y1="19.9431" x2="1877.96" y2="2245.26" gradientUnits="userSpaceOnUse">
<stop stop-color="#0A1C43"/>
<stop offset="0.415649" stop-color="#113D69"/>
<stop offset="1" stop-color="#25A5E1"/>
</linearGradient>
<linearGradient id="paint1_linear_69_168" x1="263.134" y1="580.503" x2="895.408" y2="1387.53" gradientUnits="userSpaceOnUse">
<stop stop-color="#0A1C43"/>
<stop offset="1" stop-color="#25A5E1"/>
</linearGradient>
<linearGradient id="paint2_linear_69_168" x1="137.366" y1="19.9431" x2="1877.96" y2="2245.26" gradientUnits="userSpaceOnUse">
<stop stop-color="#0A1C43"/>
<stop offset="0.415649" stop-color="#113D69"/>
<stop offset="1" stop-color="#25A5E1"/>
</linearGradient>
<linearGradient id="paint3_linear_69_168" x1="263.134" y1="580.503" x2="895.408" y2="1387.53" gradientUnits="userSpaceOnUse">
<stop stop-color="#0A1C43"/>
<stop offset="1" stop-color="#25A5E1"/>
</linearGradient>
<linearGradient id="paint4_linear_69_168" x1="211.805" y1="214.03" x2="211.613" y2="174.625" gradientUnits="userSpaceOnUse">
<stop stop-color="#4CAFDE"/>
<stop offset="1" stop-color="white" stop-opacity="0"/>
</linearGradient>
<linearGradient id="paint5_linear_69_168" x1="211.805" y1="214.03" x2="211.613" y2="174.625" gradientUnits="userSpaceOnUse">
<stop stop-color="#4CAFDE"/>
<stop offset="1" stop-color="white" stop-opacity="0"/>
</linearGradient>
<linearGradient id="paint6_linear_69_168" x1="236.417" y1="180.864" x2="31.9632" y2="707.168" gradientUnits="userSpaceOnUse">
<stop offset="0.0432692" stop-color="#4FB4E3"/>
<stop offset="1" stop-color="#073D55"/>
</linearGradient>
<linearGradient id="paint7_linear_69_168" x1="236.417" y1="180.864" x2="31.9632" y2="707.168" gradientUnits="userSpaceOnUse">
<stop offset="0.0432692" stop-color="#4FB4E3"/>
<stop offset="1" stop-color="#073D55"/>
</linearGradient>
<linearGradient id="paint8_linear_69_168" x1="827.459" y1="1017.72" x2="72.0202" y2="531.352" gradientUnits="userSpaceOnUse">
<stop stop-color="#0296DC"/>
<stop offset="1" stop-color="#82CEF2"/>
</linearGradient>
<linearGradient id="paint9_linear_69_168" x1="827.459" y1="1017.72" x2="72.0202" y2="531.352" gradientUnits="userSpaceOnUse">
<stop stop-color="#0296DC"/>
<stop offset="1" stop-color="#82CEF2"/>
</linearGradient>
<linearGradient id="paint10_linear_69_168" x1="708.291" y1="980.472" x2="772.814" y2="981.272" gradientUnits="userSpaceOnUse">
<stop stop-color="#159EDF"/>
<stop offset="0.706731" stop-color="#0296DC" stop-opacity="0"/>
</linearGradient>
<linearGradient id="paint11_linear_69_168" x1="708.291" y1="980.472" x2="772.814" y2="981.272" gradientUnits="userSpaceOnUse">
<stop stop-color="#159EDF"/>
<stop offset="0.706731" stop-color="#0296DC" stop-opacity="0"/>
</linearGradient>
<linearGradient id="paint12_linear_69_168" x1="539.766" y1="908.844" x2="674.635" y2="737.246" gradientUnits="userSpaceOnUse">
<stop stop-color="#0296DC"/>
<stop offset="1" stop-color="#015076"/>
</linearGradient>
<linearGradient id="paint13_linear_69_168" x1="539.766" y1="908.844" x2="674.635" y2="737.246" gradientUnits="userSpaceOnUse">
<stop stop-color="#0296DC"/>
<stop offset="1" stop-color="#015076"/>
</linearGradient>
<linearGradient id="paint14_linear_69_168" x1="694.756" y1="600.74" x2="692.259" y2="337.423" gradientUnits="userSpaceOnUse">
<stop stop-color="#103762"/>
<stop offset="1" stop-color="#2170C8"/>
</linearGradient>
<linearGradient id="paint15_linear_69_168" x1="694.756" y1="600.74" x2="692.259" y2="337.423" gradientUnits="userSpaceOnUse">
<stop stop-color="#103762"/>
<stop offset="1" stop-color="#2170C8"/>
</linearGradient>
<linearGradient id="paint16_linear_69_168" x1="694.756" y1="600.74" x2="692.259" y2="337.423" gradientUnits="userSpaceOnUse">
<stop stop-color="#103762"/>
<stop offset="1" stop-color="#2170C8"/>
</linearGradient>
<linearGradient id="paint17_linear_69_168" x1="694.756" y1="600.74" x2="692.259" y2="337.423" gradientUnits="userSpaceOnUse">
<stop stop-color="#103762"/>
<stop offset="1" stop-color="#2170C8"/>
</linearGradient>
<linearGradient id="paint18_linear_69_168" x1="694.756" y1="600.74" x2="692.259" y2="337.423" gradientUnits="userSpaceOnUse">
<stop stop-color="#103762"/>
<stop offset="1" stop-color="#2170C8"/>
</linearGradient>
<linearGradient id="paint19_linear_69_168" x1="694.756" y1="600.74" x2="692.259" y2="337.423" gradientUnits="userSpaceOnUse">
<stop stop-color="#103762"/>
<stop offset="1" stop-color="#2170C8"/>
</linearGradient>
<linearGradient id="paint20_linear_69_168" x1="694.756" y1="600.74" x2="692.259" y2="337.423" gradientUnits="userSpaceOnUse">
<stop stop-color="#103762"/>
<stop offset="1" stop-color="#2170C8"/>
</linearGradient>
<linearGradient id="paint21_linear_69_168" x1="694.756" y1="600.74" x2="692.259" y2="337.423" gradientUnits="userSpaceOnUse">
<stop stop-color="#103762"/>
<stop offset="1" stop-color="#2170C8"/>
</linearGradient>
<linearGradient id="paint22_linear_69_168" x1="694.756" y1="600.74" x2="692.259" y2="337.423" gradientUnits="userSpaceOnUse">
<stop stop-color="#103762"/>
<stop offset="1" stop-color="#2170C8"/>
</linearGradient>
<linearGradient id="paint23_linear_69_168" x1="694.756" y1="600.74" x2="692.259" y2="337.423" gradientUnits="userSpaceOnUse">
<stop stop-color="#103762"/>
<stop offset="1" stop-color="#2170C8"/>
</linearGradient>
</defs>
</svg>
