<svg width="1059" height="253" viewBox="0 0 1059 253" fill="none" xmlns="http://www.w3.org/2000/svg">
<path d="M1058.44 252.828V212.55H918.626V144.493H1039.92V105.603H918.626V39.8614H1058.44V0.508789H874.18V252.828H1058.44Z" fill="url(#paint0_linear_80_17)"/>
<path d="M668.529 215.925H528.407V210.803L560.557 171.535H510.223L470.111 221.808V252.828H668.529V215.925Z" fill="url(#paint1_linear_80_17)"/>
<path d="M560.557 101.779H615.284L666.174 34.9103V1.22967L470.111 0V41.3016H608.154L560.557 101.779Z" fill="url(#paint2_linear_80_17)"/>
<path d="M874.18 215.925H734.058V210.803L766.207 171.535H715.874L675.762 221.808V252.828L874.18 252.828L874.18 215.925Z" fill="url(#paint3_linear_80_17)"/>
<path d="M766.207 101.779H820.934L871.824 34.9103V1.22967L675.762 0V41.3016H813.805L766.207 101.779Z" fill="url(#paint4_linear_80_17)"/>
<path d="M157.899 252.828V146.72H42.9483V252.828H0V1.45312H42.9483V103.772H157.899V1.45312H200.215V252.828H157.899Z" fill="url(#paint5_linear_80_17)"/>
<path d="M329.918 155.081H380.672L334.148 53.5727L248.149 252.828L200.215 252.828L313.941 0H356.705L470.901 252.828H423.437L396.65 193.145H351.066L329.918 155.081Z" fill="url(#paint6_linear_80_17)"/>
<path d="M580.944 160.802V113.762H589.008C590.075 113.762 591.141 113.847 592.208 114.018C593.317 114.146 594.363 114.444 595.344 114.914C596.368 115.34 597.307 115.895 598.16 116.578C599.056 117.218 599.845 117.964 600.528 118.818C601.253 119.628 601.893 120.524 602.448 121.506C603.003 122.444 603.472 123.426 603.856 124.45C604.283 125.431 604.624 126.455 604.88 127.522C605.136 128.588 605.328 129.676 605.456 130.786C605.627 131.852 605.733 132.94 605.776 134.05C605.861 135.116 605.904 136.183 605.904 137.25C605.904 138.359 605.861 139.468 605.776 140.578C605.733 141.644 605.627 142.732 605.456 143.842C605.328 144.908 605.136 145.975 604.88 147.042C604.624 148.108 604.283 149.154 603.856 150.178C603.472 151.159 603.003 152.14 602.448 153.122C601.893 154.06 601.253 154.956 600.528 155.81C599.845 156.62 599.056 157.367 598.16 158.05C597.307 158.69 596.368 159.244 595.344 159.714C594.363 160.14 593.317 160.439 592.208 160.61C591.141 160.738 590.075 160.802 589.008 160.802H580.944ZM588.048 154.658H589.008C589.733 154.658 590.459 154.572 591.184 154.402C591.909 154.231 592.571 153.932 593.168 153.506C593.808 153.079 594.363 152.588 594.832 152.034C595.344 151.479 595.771 150.882 596.112 150.242C596.496 149.559 596.816 148.876 597.072 148.194C597.371 147.511 597.605 146.807 597.776 146.082C597.989 145.356 598.16 144.631 598.288 143.906C598.416 143.18 598.501 142.455 598.544 141.73C598.629 141.004 598.693 140.279 598.736 139.554C598.779 138.786 598.8 138.039 598.8 137.314C598.8 136.546 598.779 135.799 598.736 135.074C598.693 134.306 598.629 133.559 598.544 132.834C598.501 132.108 598.416 131.383 598.288 130.658C598.16 129.932 597.989 129.207 597.776 128.482C597.605 127.756 597.371 127.052 597.072 126.37C596.816 125.687 596.496 125.026 596.112 124.386C595.771 123.703 595.344 123.084 594.832 122.53C594.363 121.975 593.808 121.484 593.168 121.058C592.571 120.631 591.909 120.332 591.184 120.162C590.459 119.991 589.733 119.906 589.008 119.906H588.048V154.658Z" fill="#8A05BE"/>
<path d="M611.344 160.802V154.658H613.584V119.906H611.344V113.762H622.992V119.906H620.752V154.658H622.992V160.802H611.344Z" fill="#8A05BE"/>
<path d="M640.912 161.314C639.76 161.314 638.587 161.186 637.392 160.93C636.24 160.716 635.152 160.311 634.128 159.714C633.147 159.116 632.272 158.37 631.504 157.474C630.736 156.578 630.117 155.596 629.648 154.53C629.179 153.463 628.859 152.354 628.688 151.202C628.517 150.007 628.432 148.834 628.432 147.682V126.882C628.432 125.73 628.517 124.578 628.688 123.426C628.859 122.231 629.179 121.1 629.648 120.034C630.117 118.967 630.736 117.986 631.504 117.09C632.315 116.151 633.211 115.404 634.192 114.85C635.216 114.252 636.304 113.847 637.456 113.634C638.651 113.378 639.824 113.25 640.976 113.25C642.085 113.25 643.173 113.356 644.24 113.57C645.349 113.74 646.395 114.082 647.376 114.594C648.357 115.063 649.232 115.703 650 116.514C650.811 117.282 651.472 118.156 651.984 119.138C652.496 120.076 652.88 121.1 653.136 122.21C653.392 123.276 653.52 124.364 653.52 125.474V125.858H646.416V125.666C646.416 124.898 646.309 124.13 646.096 123.362C645.883 122.594 645.541 121.911 645.072 121.314C644.603 120.674 643.984 120.204 643.216 119.906C642.491 119.564 641.744 119.394 640.976 119.394C640.379 119.394 639.803 119.479 639.248 119.65C638.693 119.82 638.203 120.098 637.776 120.482C637.349 120.866 636.987 121.314 636.688 121.826C636.389 122.338 636.155 122.871 635.984 123.426C635.813 123.98 635.685 124.556 635.6 125.154C635.557 125.708 635.536 126.284 635.536 126.882V147.682C635.536 148.236 635.557 148.812 635.6 149.41C635.685 149.964 635.813 150.519 635.984 151.074C636.155 151.628 636.368 152.162 636.624 152.674C636.923 153.186 637.285 153.634 637.712 154.018C638.139 154.402 638.629 154.7 639.184 154.914C639.739 155.084 640.315 155.17 640.912 155.17C641.509 155.17 642.085 155.084 642.64 154.914C643.195 154.7 643.685 154.402 644.112 154.018C644.539 153.634 644.88 153.186 645.136 152.674C645.435 152.162 645.669 151.628 645.84 151.074C646.011 150.519 646.117 149.964 646.16 149.41C646.245 148.812 646.288 148.236 646.288 147.682V140.962H641.168V134.818H653.392V147.682C653.392 148.834 653.307 150.007 653.136 151.202C652.965 152.354 652.645 153.463 652.176 154.53C651.707 155.596 651.088 156.578 650.32 157.474C649.552 158.37 648.656 159.116 647.632 159.714C646.651 160.311 645.563 160.716 644.368 160.93C643.216 161.186 642.064 161.314 640.912 161.314Z" fill="#8A05BE"/>
<path d="M659.344 160.802V154.658H661.584V119.906H659.344V113.762H670.992V119.906H668.752V154.658H670.992V160.802H659.344Z" fill="#8A05BE"/>
<path d="M685.584 160.802V119.906H676.56V113.762H701.776V119.906H692.752V160.802H685.584Z" fill="#8A05BE"/>
<path d="M708.944 160.802V156.066C708.944 153.676 709.093 151.287 709.392 148.898C709.691 146.508 710.053 144.14 710.48 141.794C710.907 139.447 711.376 137.1 711.888 134.754C712.4 132.407 712.933 130.06 713.488 127.714C714.043 125.367 714.619 123.042 715.216 120.738C715.813 118.391 716.432 116.066 717.072 113.762H725.264C725.904 116.066 726.523 118.391 727.12 120.738C727.717 123.042 728.293 125.367 728.848 127.714C729.403 130.06 729.936 132.407 730.448 134.754C730.96 137.1 731.429 139.447 731.856 141.794C732.283 144.14 732.645 146.508 732.944 148.898C733.243 151.287 733.392 153.676 733.392 156.066V160.802H726.288V156.066C726.288 155.127 726.245 154.188 726.16 153.25C726.117 152.268 726.053 151.287 725.968 150.306H716.368C716.283 151.287 716.197 152.268 716.112 153.25C716.069 154.188 716.048 155.127 716.048 156.066V160.802H708.944ZM717.072 144.162H725.264C724.752 140.364 724.133 136.588 723.408 132.834C722.725 129.036 721.979 125.26 721.168 121.506C720.357 125.26 719.589 129.036 718.864 132.834C718.181 136.588 717.584 140.364 717.072 144.162Z" fill="#8A05BE"/>
<path d="M742.864 160.802V113.762H749.968V154.658H765.776V160.802H742.864Z" fill="#8A05BE"/>
<defs>
<linearGradient id="paint0_linear_80_17" x1="545.265" y1="204.734" x2="545.265" y2="2.38452e-06" gradientUnits="userSpaceOnUse">
<stop stop-color="#8A05BE"/>
<stop offset="0.634047" stop-color="#400258"/>
</linearGradient>
<linearGradient id="paint1_linear_80_17" x1="545.265" y1="204.734" x2="545.265" y2="2.38452e-06" gradientUnits="userSpaceOnUse">
<stop stop-color="#8A05BE"/>
<stop offset="0.634047" stop-color="#400258"/>
</linearGradient>
<linearGradient id="paint2_linear_80_17" x1="545.265" y1="204.734" x2="545.265" y2="2.38452e-06" gradientUnits="userSpaceOnUse">
<stop stop-color="#8A05BE"/>
<stop offset="0.634047" stop-color="#400258"/>
</linearGradient>
<linearGradient id="paint3_linear_80_17" x1="545.265" y1="204.734" x2="545.265" y2="2.38452e-06" gradientUnits="userSpaceOnUse">
<stop stop-color="#8A05BE"/>
<stop offset="0.634047" stop-color="#400258"/>
</linearGradient>
<linearGradient id="paint4_linear_80_17" x1="545.265" y1="204.734" x2="545.265" y2="2.38452e-06" gradientUnits="userSpaceOnUse">
<stop stop-color="#8A05BE"/>
<stop offset="0.634047" stop-color="#400258"/>
</linearGradient>
<linearGradient id="paint5_linear_80_17" x1="545.265" y1="204.734" x2="545.265" y2="2.38452e-06" gradientUnits="userSpaceOnUse">
<stop stop-color="#8A05BE"/>
<stop offset="0.634047" stop-color="#400258"/>
</linearGradient>
<linearGradient id="paint6_linear_80_17" x1="545.265" y1="204.734" x2="545.265" y2="2.38452e-06" gradientUnits="userSpaceOnUse">
<stop stop-color="#8A05BE"/>
<stop offset="0.634047" stop-color="#400258"/>
</linearGradient>
</defs>
</svg>
